Coordinates
version=1
nRows=14
nColumns=24
inDegrees=yes

Units are S.I. units (second, meters, Newtons, ...)
Angles are in degrees.

endheader
time	pelvis_tilt	pelvis_list	pelvis_rotation	pelvis_tx	pelvis_ty	pelvis_tz	hip_flexion_r	hip_adduction_r	hip_rotation_r	knee_angle_r	ankle_angle_r	subtalar_angle_r	mtp_angle_r	hip_flexion_l	hip_adduction_l	hip_rotation_l	knee_angle_l	ankle_angle_l	subtalar_angle_l	mtp_angle_l	lumbar_extension	lumbar_bending	lumbar_rotation
      0.75816667	      0.08740980	     -1.92859421	      8.79572030	     -0.50883143	      0.92292966	      0.31637323	      9.88506335	      8.58602942	     -3.07131821	    -17.20859494	      5.06002833	     -6.00048954	      3.19625519	     17.82960455	     -5.62868269	     -2.50764289	    -69.11015487	     -3.99274447	    -11.09160137	      1.21759525	     -7.55722361	      3.78622564	     -2.88786138
      0.76233333	      0.11642478	     -1.72225485	      8.56632730	     -0.50347427	      0.92413713	      0.31679672	      9.18225677	      8.46587580	     -2.84276754	    -16.68045283	      5.08040547	     -5.83992961	      3.23565328	     18.26477788	     -5.36117796	     -2.79276354	    -68.50179556	     -3.59794362	    -11.42004807	      1.13990628	     -7.62237585	      3.53395725	     -2.63174969
      0.76650000	      0.13749222	     -1.50788375	      8.30906286	     -0.49814328	      0.92529961	      0.31724851	      8.49778070	      8.33195902	     -2.59229215	    -16.16837347	      5.07345108	     -5.66696502	      3.26611005	     18.68291795	     -5.08885141	     -3.10107875	    -67.82596943	     -3.18135644	    -11.69446456	      1.08352461	     -7.69011399	      3.29014925	     -2.42965105
      0.77066667	      0.20292696	     -1.29956647	      8.05634805	     -0.49277953	      0.92649489	      0.31771437	      7.74690532	      8.20585570	     -2.36524188	    -15.61679699	      5.10946642	     -5.49720825	      3.31268683	     19.03405817	     -4.84104539	     -3.41612780	    -67.08198446	     -2.83533474	    -11.94553676	      0.99974107	     -7.78803397	      3.01342609	     -2.10772698
      0.77483333	      0.23893882	     -1.09084266	      7.77428638	     -0.48744948	      0.92759854	      0.31819464	      7.04512734	      8.06785810	     -2.12050967	    -15.08892464	      5.08575790	     -5.32605296	      4.16741648	     19.39616984	     -4.58850051	     -3.74684394	    -66.28342731	     -2.43072780	    -12.12080108	     -0.54263227	     -7.85999583	      2.75612690	     -1.75831964
      0.77900000	      0.30680479	     -0.87877252	      7.48948122	     -0.48211986	      0.92870849	      0.31868409	      6.30454187	      7.92485540	     -1.88265368	    -14.55407665	      5.10587848	     -5.13023400	      4.16921238	     19.70221743	     -4.34319880	     -4.08249447	    -65.41527697	     -2.08579266	    -12.26247608	     -0.55031631	     -7.96900945	      2.49614956	     -1.54094002
      0.78316667	      0.37267847	     -0.67203317	      7.18525304	     -0.47679714	      0.92976329	      0.31919221	      5.57098225	      7.78130557	     -1.63273305	    -14.02199617	      5.11643765	     -4.93585289	      4.17662696	     19.99002040	     -4.10856721	     -4.43074799	    -64.48861885	     -1.74850222	    -12.37081379	     -0.56466536	     -8.07292644	      2.23923595	     -1.25041026
      0.78733333	      0.44056824	     -0.46820441	      6.87118271	     -0.47149636	      0.93076166	      0.31970863	      4.84395134	      7.63326267	     -1.38720845	    -13.50057547	      5.13127574	     -4.73170800	      4.18936826	     20.25992920	     -3.88229358	     -4.78663683	    -63.50737933	     -1.42566117	    -12.43999640	     -0.58353367	     -8.17810141	      1.98598517	     -0.96407624
      0.79150000	      0.51441856	     -0.27121185	      6.54434595	     -0.46620283	      0.93170879	      0.32023566	      4.11380953	      7.48637282	     -1.13685129	    -12.97924994	      5.14393150	     -4.52725968	      4.20637702	     20.50541216	     -3.66780081	     -5.14903184	    -62.47246358	     -1.11409860	    -12.47059008	     -0.60709316	     -8.28785568	      1.73990929	     -0.67237718
      0.79566667	      0.56664554	     -0.07365607	      6.19138271	     -0.46094095	      0.93256264	      0.32077159	      3.43135556	      7.32651917	     -0.88160518	    -12.49974845	      5.12612107	     -4.31460693	      4.22156534	     20.75450391	     -3.45473275	     -5.52906885	    -61.38130378	     -0.81029951	    -12.46097858	     -0.62574976	     -8.37613162	      1.50516829	     -0.44455391
      0.79983333	      0.64550298	      0.10915182	      5.84256601	     -0.45567752	      0.93338580	      0.32131128	      2.71120788	      7.17935438	     -0.62937366	    -11.99458734	      5.14337262	     -4.09677476	      4.24045189	     20.96239665	     -3.26354200	     -5.89901390	    -60.24379500	     -0.53654211	    -12.42422944	     -0.64823837	     -8.49080613	      1.27493593	     -0.15861674
      0.80400000	      0.73518784	      0.28108931	      5.48998618	     -0.45043218	      0.93415209	      0.32184857	      1.98515467	      7.03763886	     -0.38290340	    -11.49426430	      5.17758773	     -3.88314094	      4.26516581	     21.14604393	     -3.08704523	     -6.26622137	    -59.05968684	     -0.28596848	    -12.35698507	     -0.67741018	     -8.61521489	      1.05547251	      0.17505726
      0.80816667	      0.81116649	      0.43925428	      5.13078266	     -0.44519949	      0.93482419	      0.32237417	      1.28508874	      6.90000771	     -0.13429072	    -11.00884363	      5.20713646	     -3.66539469	      4.29253841	     21.33140954	     -2.92218207	     -6.62656966	    -57.83215295	     -0.05581922	    -12.27094729	     -0.70966440	     -8.71788681	      0.85774586	      0.49061737
      0.81233333	      0.90236281	      0.57685375	      4.77936454	     -0.43997441	      0.93543089	      0.32289436	      0.56326030	      6.78009574	      0.10747920	    -10.50436448	      5.27102210	     -3.44531168	      4.33187606	     21.49433978	     -2.78112433	     -6.97005978	    -56.57153961	      0.15264813	    -12.16327919	     -0.75612365	     -8.83217079	      0.66808285	      0.86931782
